<svg xmlns="http://www.w3.org/2000/svg" viewBox="0 0 500 500"><g id="freepik--background-simple--inject-17"><path d="M437.4,314.93s51.09-57.42,34.85-157.33-99.67-136.72-155-117.49-67.81,52.7-113,71.84-131.06,6-174,70.29,11.88,170.82,81.67,237.62S359.8,444.84,437.4,314.93Z" style="fill:#37474F"></path><path d="M437.4,314.93s51.09-57.42,34.85-157.33-99.67-136.72-155-117.49-67.81,52.7-113,71.84-131.06,6-174,70.29,11.88,170.82,81.67,237.62S359.8,444.84,437.4,314.93Z" style="fill:#fff;opacity:0.7000000000000001"></path></g><g id="freepik--Character--inject-17"><polygon points="401.04 476.25 395.26 409.62 258.41 409.62 250.85 476.25 401.04 476.25" style="fill:#263238;stroke:#263238;stroke-miterlimit:10"></polygon><path d="M317.22,207.67s-40,11-57.5,24.24-29.6,26.78-26.78,52.43,21.14,95.83,21.14,95.83-2.54,28.47-2.54,30.16-.28,6.48,5.92,6.76,80.61,3.39,97.24,3.67,38.62-1.41,41.15-3.38a11.76,11.76,0,0,0,4.23-8.46c.28-3.38,3.1-44.82,3.1-44.82l.28-18.6s18.33-60.88,19.45-80.61-6.2-26.21-14.37-32.41-33.61-16.7-47.35-20.86S317.22,207.67,317.22,207.67Z" style="fill:#37474F;stroke:#263238;stroke-miterlimit:10"></path><path d="M327.09,302.27c-2,27.45-5.66,78-5.34,86.71.45,12-4.44,15.55-4.44,20" style="fill:none;stroke:#263238;stroke-miterlimit:10"></path><path d="M328.42,284.56s-.36,4.67-.91,12.06" style="fill:none;stroke:#263238;stroke-miterlimit:10"></path><polygon points="346.28 319.82 348.84 350.02 363.17 349 346.28 319.82" style="fill:#263238;stroke:#263238;stroke-miterlimit:10"></polygon><path d="M332.7,372.48s35-5.5,37.63-4.92,20.55,9.26,23.16,9.84a24.34,24.34,0,0,1,4.92,1.74l3.93,3.29L401,372.48s-5.21-6.37-16.79-11-17.37-2-20-1.15S332.7,372.48,332.7,372.48Z" style="fill:#263238;stroke:#263238;stroke-miterlimit:10"></path><path d="M278.88,346.07l91-.29s29.32-2.81,30.44-3.1,12.69,2.82,13.82,3.67,1.12,3.38.56,5.92l-.56,2.53a53.38,53.38,0,0,1,.84,6.49c0,2-2.25,2.53-2.54,3.38s1.7,3.94-.56,5.92l-2.25,2s-.29,5.36-1.41,6.77-4.51,3.94-5.92,3.1-.85-3.1-.85-4.51-.56-2.82-2.25-2.82-2,1.41-10.71-.85-18.32-9.86-19.17-10.15-77.23,20.3-99.78,23.12-24.52-.28-25.37-4-2.25-12.4-2.25-12.4l-4-17.19Z" style="fill:#fff;stroke:#263238;stroke-miterlimit:10"></path><path d="M338.05,240.71s4.71-5,7.68-2.73,5.69,14.11,9.4,13.12,11.14-24,11.14-33.16-6.44-14.6-7.92-15.1-39.35-1-43.81.75-6.18,17.32-7.91,26.72,2.22,11.63,4.7,10.4,12.12-5.2,14.35-5.2S338.05,240.71,338.05,240.71Z" style="fill:#37474F;stroke:#263238;stroke-miterlimit:10"></path><path d="M363.4,188.54s-3.55,17.54-4.93,21.87-11.43,17.54-14,20.3-10.05,16.35-12,16.75S325,229.33,325,229.33s-7.1-12.22-8.48-15.37S313,201.55,313,201.55s11.62,10,24,7.88,18.71-14.58,18.71-14.58Z" style="fill:#fff;stroke:#263238;stroke-miterlimit:10"></path><path d="M315.29,153.6s-3.47-3.72-5.45,2,2,15.83,2,15.83Z" style="fill:#fff;stroke:#263238;stroke-miterlimit:10"></path><path d="M315.91,142s-5.71,40.59-5.71,43-1.58,10.24.79,15.37,9.45,11.42,15.17,12.21,16.94-.39,23.25-5.32S363,191.7,363,191.7s7.89-1.19,13-3.35,9.06-7.1,8.87-12.22a17.18,17.18,0,0,0-3.35-9.06l-3-5.52,7.88-14.78s-4.53-8.47-19.11-16.55-27.59-10.64-33.69-10.64-13.8,2.56-16,7.49S315.91,142,315.91,142Z" style="fill:#fff;stroke:#263238;stroke-miterlimit:10"></path><path d="M334.63,122.14s11.23,18.52,19.71,17.74,11-4.73,11-4.73l5.71,7.68s-6.1,2.56-4.92,5.72,6.5,10.24,6.5,10.24l-4.34,18.52s3.35.59,3.95-.59,3.54-8.47,3.54-8.47a10.22,10.22,0,0,1,2.56-1.18,7.52,7.52,0,0,1,3.16,0s2.16-7.29,3-7.49,8.67-2.37,11.63-10.05-1.58-19.9-11.83-29.55-31.92-12.22-33.1-14,5.52.78,4.14-3.16-10.05-9.06-21.08-3.54-9.46,11.62-8.28,13.59l1.18,2s-9.26-3.15-15.76.79-9.65,11.82-6.7,12.61,6.7-1,6.7-1-3.94,6.5-2.76,7.88,7.29,6.89,7.29,6.89,2.37-13.79,7.29-15.76S334.63,122.14,334.63,122.14Z" style="fill:#263238;stroke:#263238;stroke-miterlimit:10"></path><polyline points="331.08 148.74 332.86 154.46 322.81 173.37 333.45 177.51" style="fill:none;stroke:#263238;stroke-miterlimit:10"></polyline><path d="M329.11,146.57s-4.72-3.74-8.67-2.75-1.57,1.57,1.19,2.56S329.9,149.92,329.11,146.57Z" style="fill:#263238;stroke:#263238;stroke-miterlimit:10"></path><path d="M343.7,145.79s-4.54,1.18-2.37,2.16,8.67-1,11.23,0,5.91,4.34,5.72,2.76A8,8,0,0,0,353,144.8C349.41,143.62,343.7,145.79,343.7,145.79Z" style="fill:#263238;stroke:#263238;stroke-miterlimit:10"></path><path d="M326.51,155.32c-.35,1.43-1.31,2.42-2.16,2.21s-1.25-1.52-.91-2.95,1.32-2.42,2.16-2.22S326.85,153.89,326.51,155.32Z" style="fill:#263238"></path><path d="M348,160.94c-.35,1.42-1.32,2.41-2.16,2.21s-1.25-1.53-.91-3,1.31-2.42,2.16-2.21S348.33,159.51,348,160.94Z" style="fill:#263238"></path><line x1="316.7" y1="179.87" x2="324.78" y2="185.19" style="fill:none;stroke:#263238;stroke-miterlimit:10"></line><path d="M399.8,227.68s27.9,10.72,33.26,26.78-1.41,36.36-4.23,44.82-20.29,41.43-23.11,49.32-7.05,17.48-7.05,17.48S394.73,342.4,384,327.75s-13.25-27.91-13.25-27.91,19.45-34.39,24.52-45.1" style="fill:#37474F;stroke:#263238;stroke-miterlimit:10"></path><path d="M373.73,293.88s5.71-2.85,7.61-1.9,26.33,14,29.5,28.87a50.55,50.55,0,0,1-4.44,33c-2.86,5.4-8.25,15.86-12.37,17.13s-7.62-32.67-16.18-50.43S373.73,293.88,373.73,293.88Z" style="fill:#37474F;stroke:#263238;stroke-miterlimit:10"></path><path d="M383.17,277.57s5.07-17.19,7.05-23.95" style="fill:none;stroke:#263238;stroke-miterlimit:10"></path><path d="M332.27,216.52s-7.88-11-14-18.32-12.42-11.63-14.58-11-3,2.76-1.58,5.32,7.88,8.28,9.06,9.86,3,7.29,3,7.29-5.71.39-6.7,1.57a26.41,26.41,0,0,0-2.36,4.34,8.37,8.37,0,0,0-3,2.56,7,7,0,0,0-1.18,2.76c-.2.79-3,2.17-2.76,5.71s3.55,8.67,4.73,11,9.85,12.8,11.43,14.58,10.64,17.53,13,22.85,25.22,67,31.92,76.26,19.11,18.12,25.81,21.28,11.43-2.17,14.58-8.87,5.91-20.1-.19-35.47-18.13-28.57-27.39-36.45-26.6-27.58-28.57-31.13S339,249.23,339,249.23s5.12-15,5.51-18.52-1.57-9.85-1-12.61,2.95-8.28,3.94-10.64,4.33-6.31,2.56-8.08-9.06.39-11.62,4.53A120.38,120.38,0,0,0,332.27,216.52Z" style="fill:#fff;stroke:#263238;stroke-miterlimit:10"></path><path d="M271.37,259.19c.59-3.13,1-5.29,1-5.29" style="fill:#37474F;stroke:#263238;stroke-miterlimit:10"></path><path d="M269.58,226.84s-14.94,2-30.44,18.6-8.74,56.09-7.33,64.27S235.48,343,235.48,343l39.74-13.25s-6.48-44.25-7.05-48.2c-.28-2,.8-9,1.94-15.5" style="fill:#37474F;stroke:#263238;stroke-miterlimit:10"></path><path d="M231.53,334.23s3.95,21.14,5.92,22.26,32.69-7.32,36.08-7.89,5.35.28,5.35-2.53-2.82-16.07-4.51-18.32-38.33,2.53-41.43,3.38S231.53,334.23,231.53,334.23Z" style="fill:#37474F;stroke:#263238;stroke-miterlimit:10"></path><path d="M254,317.89a159.92,159.92,0,0,1,20.33,9.86s-9.58-18-13.53-21.71" style="fill:none;stroke:#263238;stroke-miterlimit:10"></path><path d="M248.72,315.91c1.13.39,2.25.8,3.35,1.21" style="fill:none;stroke:#263238;stroke-miterlimit:10"></path><path d="M341.16,408.18c7.29-2.6,14-5.46,18-8.28" style="fill:none;stroke:#263238;stroke-miterlimit:10"></path><path d="M306.79,418.22s15.57-3.69,30.35-8.65" style="fill:none;stroke:#263238;stroke-miterlimit:10"></path><path d="M372.28,398.73c-7.66,3.82-19.79,9.4-29.7,11.88" style="fill:none;stroke:#263238;stroke-miterlimit:10"></path><path d="M379.79,394.83s-1.57.87-4.18,2.21" style="fill:none;stroke:#263238;stroke-miterlimit:10"></path></g><g id="freepik--speech-bubble--inject-17"><path d="M116.12,37.14C49.05,69.45,36.33,164.31,78.87,221.33c8.89,11.92,20.51,22,34.28,27.81,47,19.93,84.67-19.7,107.58-56.12,36.58-58.13,41.15-72.5,40.5-62.71S277.56,150.56,287.36,99c12.53-66-79.83-81-126.58-74.76A148.06,148.06,0,0,0,116.12,37.14Z" style="fill:#263238;stroke:#263238;stroke-miterlimit:10"></path><ellipse cx="273.97" cy="152.85" rx="14.7" ry="8.82" transform="translate(7.52 318.46) rotate(-61.02)" style="fill:#263238;stroke:#263238;stroke-miterlimit:10"></ellipse><path d="M288.69,158.58c-2.32,4.19-2.16,8.73.35,10.12s6.45-.88,8.77-5.07,2.17-8.73-.35-10.12S291,154.38,288.69,158.58Z" style="fill:#263238;stroke:#263238;stroke-miterlimit:10"></path><path d="M120,31C52.91,63.27,40.19,158.13,82.73,215.15c8.89,11.92,20.52,22,34.28,27.81,47,19.93,84.67-19.7,107.58-56.12,36.58-58.13,41.16-72.5,40.5-62.71s16.33,20.25,26.13-31.35c12.53-66-79.83-81-126.58-74.76A148.06,148.06,0,0,0,120,31Z" style="fill:#fff;stroke:#263238;stroke-miterlimit:10"></path><path d="M270.12,142.4c-3.94,7.1-3.67,14.77.59,17.13s10.9-1.49,14.84-8.59,3.66-14.77-.6-17.13S274.05,135.3,270.12,142.4Z" style="fill:#fff;stroke:#263238;stroke-miterlimit:10"></path><path d="M292.56,152.4c-2.33,4.2-2.17,8.73.35,10.12s6.44-.87,8.76-5.07,2.17-8.73-.35-10.12S294.88,148.2,292.56,152.4Z" style="fill:#fff;stroke:#263238;stroke-miterlimit:10"></path></g><g id="freepik--Gears--inject-17"><path d="M84.57,102.45V89.24h8a38.14,38.14,0,0,1,1.71-6.42l-6.95-4L94,67.37l7,4a38.64,38.64,0,0,1,4.7-4.7l-4-7,11.44-6.61,4,7a38.14,38.14,0,0,1,6.42-1.71v-8h13.21v8.05a37.19,37.19,0,0,1,6.42,1.7l4-6.95,11.44,6.61-4,7a38.56,38.56,0,0,1,4.69,4.7l7-4,6.6,11.44-7,4a37.19,37.19,0,0,1,1.7,6.42h8v13.21h-8a38.51,38.51,0,0,1-1.71,6.43l6.95,4-6.6,11.44-7-4a37.86,37.86,0,0,1-4.7,4.69l4,7-11.44,6.6-4-7a37.54,37.54,0,0,1-6.43,1.7v8H123.48v-8a38.14,38.14,0,0,1-6.42-1.71l-4,7L101.6,132l4-7a38.64,38.64,0,0,1-4.7-4.7l-7,4-6.61-11.44,7-4a38.51,38.51,0,0,1-1.71-6.43Zm45.53,18a24.62,24.62,0,1,0-24.62-24.61A24.61,24.61,0,0,0,130.1,120.47Z" style="fill:#ccc"></path><path d="M103.31,180.08V169.35h6.54a31.44,31.44,0,0,1,1.39-5.23l-5.65-3.26,5.37-9.3,5.67,3.27a30.63,30.63,0,0,1,3.82-3.82l-3.27-5.66,9.3-5.37,3.26,5.66a30.63,30.63,0,0,1,5.22-1.39v-6.54H145.7v6.54a31.07,31.07,0,0,1,5.22,1.39l3.27-5.65,9.3,5.37L160.22,151a31.33,31.33,0,0,1,3.82,3.82l5.66-3.27,5.37,9.3-5.66,3.27a31.32,31.32,0,0,1,1.39,5.22h6.54V180.1H170.8a31.07,31.07,0,0,1-1.39,5.22l5.65,3.26-5.37,9.31L164,194.61a31.33,31.33,0,0,1-3.82,3.82l3.26,5.66-9.3,5.37-3.26-5.65a31.32,31.32,0,0,1-5.22,1.39v6.53H135v-6.54a29.27,29.27,0,0,1-5.22-1.39l-3.27,5.66-9.3-5.37,3.27-5.67a31.24,31.24,0,0,1-3.81-3.82L111,197.87l-5.37-9.3,5.66-3.26a31.44,31.44,0,0,1-1.39-5.23Zm37,14.65a20,20,0,1,0-20-20A20,20,0,0,0,140.33,194.73Z" style="fill:#ccc"></path><path d="M171.55,155.54v-8.18h5a23.09,23.09,0,0,1,1.06-4l-4.31-2.49,4.09-7.08,4.32,2.49a23.53,23.53,0,0,1,2.91-2.91l-2.49-4.31,7.08-4.09,2.49,4.31a23.09,23.09,0,0,1,4-1.06v-5h8.18v5a23.66,23.66,0,0,1,4,1.06l2.49-4.3,7.08,4.09-2.49,4.31a23.53,23.53,0,0,1,2.91,2.91l4.31-2.49,4.09,7.08-4.3,2.49a24,24,0,0,1,1,4h5v8.18h-5a23.09,23.09,0,0,1-1.06,4L226.2,162l-4.09,7.09-4.32-2.49a23.45,23.45,0,0,1-2.91,2.9l2.49,4.32-7.08,4.09-2.49-4.31a24,24,0,0,1-4,1.06v5h-8.18v-5a23.64,23.64,0,0,1-4-1l-2.49,4.3-7.08-4.09,2.49-4.31a24.24,24.24,0,0,1-2.91-2.91l-4.31,2.49L173.28,162l4.3-2.48a24,24,0,0,1-1.05-4Zm28.19,11.15a15.24,15.24,0,1,0-15.24-15.24A15.24,15.24,0,0,0,199.74,166.69Z" style="fill:#ccc"></path><path d="M200.68,79.87V71.69h5a24,24,0,0,1,1.06-4l-4.3-2.48,4.09-7.09,4.31,2.49a25,25,0,0,1,2.91-2.91l-2.49-4.31,7.09-4.09,2.48,4.31a23.09,23.09,0,0,1,4-1.06v-5H233v5a24,24,0,0,1,4,1.06l2.48-4.3,7.09,4.09L244,57.73a24.15,24.15,0,0,1,2.9,2.91l4.32-2.49,4.09,7.09L251,67.72a24,24,0,0,1,1.06,4h5v8.18h-5a24,24,0,0,1-1.05,4l4.3,2.48-4.09,7.09-4.31-2.49a24.15,24.15,0,0,1-2.91,2.9l2.49,4.32-7.09,4.09-2.48-4.31A24,24,0,0,1,233,99v5h-8.18V99a24,24,0,0,1-4-1l-2.48,4.3-7.09-4.09,2.49-4.31a25,25,0,0,1-2.91-2.91l-4.31,2.49-4.09-7.09,4.31-2.48a23.09,23.09,0,0,1-1.06-4ZM228.87,91a15.25,15.25,0,1,0-15.24-15.25A15.25,15.25,0,0,0,228.87,91Z" style="fill:#ccc"></path></g></svg>